<mxfile host="app.diagrams.net" modified="2023-09-13T02:46:58.742Z" agent="Mozilla/5.0 (Windows NT 10.0; Win64; x64) AppleWebKit/537.36 (KHTML, like Gecko) Chrome/115.0.0.0 Safari/537.36 OPR/101.0.0.0" etag="fURE-LhP-tx2S1iXsF0p" version="21.5.0">
  <diagram name="PÃ¡gina-1" id="j4Uu80C5btB-vEgeyR8s">
    <mxGraphModel dx="1375" dy="535" grid="1" gridSize="10" guides="1" tooltips="1" connect="1" arrows="1" fold="1" page="1" pageScale="1" pageWidth="827" pageHeight="1169" math="0" shadow="0">
      <root>
        <mxCell id="0" />
        <mxCell id="1" parent="0" />
        <mxCell id="DSL1LhJFHx7LNL86YFxD-3" style="edgeStyle=orthogonalEdgeStyle;rounded=0;orthogonalLoop=1;jettySize=auto;html=1;entryX=0.5;entryY=0;entryDx=0;entryDy=0;" edge="1" parent="1" source="DSL1LhJFHx7LNL86YFxD-1" target="DSL1LhJFHx7LNL86YFxD-2">
          <mxGeometry relative="1" as="geometry" />
        </mxCell>
        <mxCell id="DSL1LhJFHx7LNL86YFxD-1" value="User connects" style="rounded=1;whiteSpace=wrap;html=1;fillColor=#60a917;fontColor=#ffffff;strokeColor=#2D7600;" vertex="1" parent="1">
          <mxGeometry x="360" y="50" width="120" height="60" as="geometry" />
        </mxCell>
        <mxCell id="DSL1LhJFHx7LNL86YFxD-8" style="edgeStyle=orthogonalEdgeStyle;rounded=0;orthogonalLoop=1;jettySize=auto;html=1;entryX=0.5;entryY=0;entryDx=0;entryDy=0;" edge="1" parent="1" source="DSL1LhJFHx7LNL86YFxD-2" target="DSL1LhJFHx7LNL86YFxD-6">
          <mxGeometry relative="1" as="geometry" />
        </mxCell>
        <mxCell id="DSL1LhJFHx7LNL86YFxD-9" style="edgeStyle=orthogonalEdgeStyle;rounded=0;orthogonalLoop=1;jettySize=auto;html=1;entryX=0.5;entryY=0;entryDx=0;entryDy=0;" edge="1" parent="1" source="DSL1LhJFHx7LNL86YFxD-2" target="DSL1LhJFHx7LNL86YFxD-7">
          <mxGeometry relative="1" as="geometry" />
        </mxCell>
        <mxCell id="DSL1LhJFHx7LNL86YFxD-10" value="Yes" style="edgeLabel;html=1;align=center;verticalAlign=middle;resizable=0;points=[];" vertex="1" connectable="0" parent="DSL1LhJFHx7LNL86YFxD-9">
          <mxGeometry x="-0.1339" y="1" relative="1" as="geometry">
            <mxPoint as="offset" />
          </mxGeometry>
        </mxCell>
        <mxCell id="DSL1LhJFHx7LNL86YFxD-12" style="edgeStyle=orthogonalEdgeStyle;rounded=0;orthogonalLoop=1;jettySize=auto;html=1;entryX=0.5;entryY=0;entryDx=0;entryDy=0;" edge="1" parent="1" source="DSL1LhJFHx7LNL86YFxD-2" target="DSL1LhJFHx7LNL86YFxD-11">
          <mxGeometry relative="1" as="geometry" />
        </mxCell>
        <mxCell id="DSL1LhJFHx7LNL86YFxD-13" value="Yes" style="edgeLabel;html=1;align=center;verticalAlign=middle;resizable=0;points=[];" vertex="1" connectable="0" parent="DSL1LhJFHx7LNL86YFxD-12">
          <mxGeometry x="-0.3789" relative="1" as="geometry">
            <mxPoint as="offset" />
          </mxGeometry>
        </mxCell>
        <mxCell id="DSL1LhJFHx7LNL86YFxD-14" value="&lt;br&gt;" style="edgeLabel;html=1;align=center;verticalAlign=middle;resizable=0;points=[];" vertex="1" connectable="0" parent="DSL1LhJFHx7LNL86YFxD-12">
          <mxGeometry x="-0.4883" y="2" relative="1" as="geometry">
            <mxPoint as="offset" />
          </mxGeometry>
        </mxCell>
        <mxCell id="DSL1LhJFHx7LNL86YFxD-16" style="edgeStyle=orthogonalEdgeStyle;rounded=0;orthogonalLoop=1;jettySize=auto;html=1;entryX=0.5;entryY=0;entryDx=0;entryDy=0;" edge="1" parent="1" source="DSL1LhJFHx7LNL86YFxD-2" target="DSL1LhJFHx7LNL86YFxD-15">
          <mxGeometry relative="1" as="geometry" />
        </mxCell>
        <mxCell id="DSL1LhJFHx7LNL86YFxD-18" style="edgeStyle=orthogonalEdgeStyle;rounded=0;orthogonalLoop=1;jettySize=auto;html=1;entryX=0.5;entryY=0;entryDx=0;entryDy=0;" edge="1" parent="1" source="DSL1LhJFHx7LNL86YFxD-2" target="DSL1LhJFHx7LNL86YFxD-17">
          <mxGeometry relative="1" as="geometry" />
        </mxCell>
        <mxCell id="DSL1LhJFHx7LNL86YFxD-19" value="No" style="edgeLabel;html=1;align=center;verticalAlign=middle;resizable=0;points=[];" vertex="1" connectable="0" parent="DSL1LhJFHx7LNL86YFxD-18">
          <mxGeometry x="-0.0739" relative="1" as="geometry">
            <mxPoint as="offset" />
          </mxGeometry>
        </mxCell>
        <mxCell id="DSL1LhJFHx7LNL86YFxD-40" style="edgeStyle=orthogonalEdgeStyle;rounded=0;orthogonalLoop=1;jettySize=auto;html=1;entryX=0.5;entryY=0;entryDx=0;entryDy=0;" edge="1" parent="1" source="DSL1LhJFHx7LNL86YFxD-2" target="DSL1LhJFHx7LNL86YFxD-39">
          <mxGeometry relative="1" as="geometry" />
        </mxCell>
        <mxCell id="DSL1LhJFHx7LNL86YFxD-2" value="Has profile NFT?" style="ellipse;whiteSpace=wrap;html=1;fillColor=#f0a30a;fontColor=#000000;strokeColor=#BD7000;" vertex="1" parent="1">
          <mxGeometry x="372.5" y="160" width="95" height="48" as="geometry" />
        </mxCell>
        <mxCell id="DSL1LhJFHx7LNL86YFxD-6" value="User Feed" style="rounded=0;whiteSpace=wrap;html=1;" vertex="1" parent="1">
          <mxGeometry x="480" y="260" width="81" height="37" as="geometry" />
        </mxCell>
        <mxCell id="DSL1LhJFHx7LNL86YFxD-7" value="Create post" style="rounded=0;whiteSpace=wrap;html=1;" vertex="1" parent="1">
          <mxGeometry x="580" y="260" width="81" height="37" as="geometry" />
        </mxCell>
        <mxCell id="DSL1LhJFHx7LNL86YFxD-11" value="Receive tips" style="rounded=0;whiteSpace=wrap;html=1;" vertex="1" parent="1">
          <mxGeometry x="680" y="260" width="81" height="37" as="geometry" />
        </mxCell>
        <mxCell id="DSL1LhJFHx7LNL86YFxD-15" value="Global Feed" style="rounded=0;whiteSpace=wrap;html=1;" vertex="1" parent="1">
          <mxGeometry x="279" y="260" width="81" height="37" as="geometry" />
        </mxCell>
        <mxCell id="DSL1LhJFHx7LNL86YFxD-24" value="" style="edgeStyle=orthogonalEdgeStyle;rounded=0;orthogonalLoop=1;jettySize=auto;html=1;" edge="1" parent="1" source="DSL1LhJFHx7LNL86YFxD-17" target="DSL1LhJFHx7LNL86YFxD-23">
          <mxGeometry relative="1" as="geometry" />
        </mxCell>
        <mxCell id="DSL1LhJFHx7LNL86YFxD-17" value="Create Profile" style="rounded=0;whiteSpace=wrap;html=1;" vertex="1" parent="1">
          <mxGeometry x="160" y="260" width="81" height="37" as="geometry" />
        </mxCell>
        <mxCell id="DSL1LhJFHx7LNL86YFxD-27" style="edgeStyle=orthogonalEdgeStyle;rounded=0;orthogonalLoop=1;jettySize=auto;html=1;entryX=0.5;entryY=0;entryDx=0;entryDy=0;" edge="1" parent="1" source="DSL1LhJFHx7LNL86YFxD-23" target="DSL1LhJFHx7LNL86YFxD-26">
          <mxGeometry relative="1" as="geometry" />
        </mxCell>
        <mxCell id="DSL1LhJFHx7LNL86YFxD-23" value="&lt;p style=&quot;line-height: 40%;&quot;&gt;&lt;span style=&quot;font-size: 6px;&quot;&gt;form: {userHandle: string, userImage: string}&lt;br&gt;&lt;/span&gt;&lt;/p&gt;" style="rounded=0;whiteSpace=wrap;html=1;" vertex="1" parent="1">
          <mxGeometry x="160" y="320" width="81" height="37" as="geometry" />
        </mxCell>
        <mxCell id="DSL1LhJFHx7LNL86YFxD-34" value="Manager&lt;br&gt;Wallet" style="rounded=0;whiteSpace=wrap;html=1;fillColor=none;dashed=1;strokeColor=#3272F0;" vertex="1" parent="1">
          <mxGeometry x="50" y="370" width="100" height="220" as="geometry" />
        </mxCell>
        <mxCell id="DSL1LhJFHx7LNL86YFxD-37" style="edgeStyle=orthogonalEdgeStyle;rounded=0;orthogonalLoop=1;jettySize=auto;html=1;entryX=0.5;entryY=0;entryDx=0;entryDy=0;" edge="1" parent="1" source="DSL1LhJFHx7LNL86YFxD-26" target="DSL1LhJFHx7LNL86YFxD-36">
          <mxGeometry relative="1" as="geometry" />
        </mxCell>
        <mxCell id="DSL1LhJFHx7LNL86YFxD-26" value="&lt;p style=&quot;line-height: 80%;&quot;&gt;&lt;font style=&quot;font-size: 9px;&quot;&gt;Mint user arc69 NFT&lt;/font&gt;&lt;/p&gt;" style="shape=process;whiteSpace=wrap;html=1;backgroundOutline=1;" vertex="1" parent="1">
          <mxGeometry x="163.5" y="380" width="74" height="44" as="geometry" />
        </mxCell>
        <mxCell id="DSL1LhJFHx7LNL86YFxD-30" style="edgeStyle=orthogonalEdgeStyle;rounded=0;orthogonalLoop=1;jettySize=auto;html=1;entryX=0;entryY=0.5;entryDx=0;entryDy=0;" edge="1" parent="1" source="DSL1LhJFHx7LNL86YFxD-29" target="DSL1LhJFHx7LNL86YFxD-26">
          <mxGeometry relative="1" as="geometry" />
        </mxCell>
        <mxCell id="DSL1LhJFHx7LNL86YFxD-29" value="meanIt account management wallet" style="shape=hexagon;perimeter=hexagonPerimeter2;whiteSpace=wrap;html=1;fixedSize=1;fontSize=6;" vertex="1" parent="1">
          <mxGeometry x="65" y="383" width="70" height="38" as="geometry" />
        </mxCell>
        <mxCell id="DSL1LhJFHx7LNL86YFxD-35" value="" style="rounded=0;whiteSpace=wrap;html=1;fillColor=none;dashed=1;strokeColor=#F0E800;" vertex="1" parent="1">
          <mxGeometry x="150" y="370" width="100" height="220" as="geometry" />
        </mxCell>
        <mxCell id="DSL1LhJFHx7LNL86YFxD-36" value="userWallet" style="shape=hexagon;perimeter=hexagonPerimeter2;whiteSpace=wrap;html=1;fixedSize=1;fontSize=6;" vertex="1" parent="1">
          <mxGeometry x="165" y="461" width="70" height="38" as="geometry" />
        </mxCell>
        <mxCell id="DSL1LhJFHx7LNL86YFxD-38" value="User NFT Minting" style="text;html=1;align=center;verticalAlign=middle;resizable=0;points=[];autosize=1;strokeColor=none;fillColor=none;fontColor=#808080;" vertex="1" parent="1">
          <mxGeometry x="90" y="520" width="120" height="30" as="geometry" />
        </mxCell>
        <mxCell id="DSL1LhJFHx7LNL86YFxD-39" value="Edit profile" style="rounded=0;whiteSpace=wrap;html=1;" vertex="1" parent="1">
          <mxGeometry x="780" y="260" width="81" height="37" as="geometry" />
        </mxCell>
      </root>
    </mxGraphModel>
  </diagram>
</mxfile>
